<?xml version="1.0" encoding="UTF-8" standalone="no"?>
<!-- Created with Inkscape (http://www.inkscape.org/) -->

<svg
   width="210mm"
   height="297mm"
   viewBox="0 0 210 297"
   version="1.1"
   id="svg19413"
   sodipodi:docname="ico_fb.svg"
   inkscape:version="1.1 (c68e22c387, 2021-05-23)"
   xmlns:inkscape="http://www.inkscape.org/namespaces/inkscape"
   xmlns:sodipodi="http://sodipodi.sourceforge.net/DTD/sodipodi-0.dtd"
   xmlns="http://www.w3.org/2000/svg"
   xmlns:svg="http://www.w3.org/2000/svg">
  <sodipodi:namedview
     id="namedview19415"
     pagecolor="#ffffff"
     bordercolor="#666666"
     borderopacity="1.0"
     inkscape:pageshadow="2"
     inkscape:pageopacity="0.0"
     inkscape:pagecheckerboard="0"
     inkscape:document-units="mm"
     showgrid="false"
     inkscape:zoom="0.72070006"
     inkscape:cx="396.75646"
     inkscape:cy="561.23788"
     inkscape:window-width="1920"
     inkscape:window-height="1017"
     inkscape:window-x="-8"
     inkscape:window-y="-8"
     inkscape:window-maximized="1"
     inkscape:current-layer="layer1" />
  <defs
     id="defs19410" />
  <g
     inkscape:label="Capa 1"
     inkscape:groupmode="layer"
     id="layer1">
    <path
       d="m 118.5049,202.37473 c -0.66146,0.0265 -1.08479,0.0794 -1.50813,0.0794 -9.04875,0 -18.071039,-0.0265 -27.119789,0.0265 -1.27,0 -1.613958,-0.34396 -1.613958,-1.61396 0.02646,-21.06083 0.02646,-42.14812 0.02646,-63.20896 0,-0.55562 0,-1.11125 0,-1.82562 -4.92125,0 -9.710208,0 -14.578542,0 0,-7.51417 0,-14.89605 0,-22.48959 0.502709,0 0.978959,0 1.42875,0 3.96875,0 7.9375,-0.0265 11.90625,0.0265 1.005417,0 1.27,-0.29104 1.27,-1.27 -0.05292,-5.90021 -0.05292,-11.82687 0,-17.727081 0.02646,-4.1275 0.687917,-8.149166 2.592917,-11.879791 2.725208,-5.265209 7.037917,-8.678334 12.488332,-10.795 4.445,-1.74625 9.12813,-2.38125 13.83771,-2.460625 7.67292,-0.105834 15.34583,-0.05292 23.01875,-0.07938 0.71438,0 1.29646,-0.02646 1.29646,0.978958 -0.0265,7.276042 -0.0265,14.552083 -0.0265,21.828125 0,0.07938 -0.0265,0.15875 -0.13229,0.502708 -0.44979,0 -0.9525,0 -1.45521,0 -4.7625,0 -9.525,-0.02646 -14.2875,0 -2.75167,0 -4.97417,1.11125 -6.37646,3.518959 -0.42333,0.714375 -0.68791,1.640416 -0.68791,2.487083 -0.0794,4.497914 0,8.995834 -0.0529,13.493754 0,1.05833 0.3175,1.34937 1.34937,1.34937 6.61458,-0.0529 13.22917,-0.0265 19.84375,-0.0265 0.52917,0 1.03188,0 1.93146,0 -0.92604,7.56708 -1.82562,14.97541 -2.75166,22.46312 -6.87917,0 -13.57313,0 -20.39938,0 0,22.25146 0,44.37063 0,66.62208 z"
       id="path19497"
       style="stroke-width:0.264583;stroke:none;stroke-opacity:1;fill:#ffffff;fill-opacity:1" />
  </g>
</svg>
