<?xml version="1.0" encoding="UTF-8" standalone="no"?>
<!-- Created with Inkscape (http://www.inkscape.org/) -->

<svg
   width="210mm"
   height="297mm"
   viewBox="0 0 210 297"
   version="1.1"
   id="svg21375"
   sodipodi:docname="ico_insta.svg"
   inkscape:version="1.1 (c68e22c387, 2021-05-23)"
   xmlns:inkscape="http://www.inkscape.org/namespaces/inkscape"
   xmlns:sodipodi="http://sodipodi.sourceforge.net/DTD/sodipodi-0.dtd"
   xmlns="http://www.w3.org/2000/svg"
   xmlns:svg="http://www.w3.org/2000/svg">
  <sodipodi:namedview
     id="namedview21377"
     pagecolor="#ffffff"
     bordercolor="#666666"
     borderopacity="1.0"
     inkscape:pageshadow="2"
     inkscape:pageopacity="0.0"
     inkscape:pagecheckerboard="0"
     inkscape:document-units="mm"
     showgrid="false"
     inkscape:zoom="0.36035003"
     inkscape:cx="232.16738"
     inkscape:cy="125.44004"
     inkscape:window-width="1920"
     inkscape:window-height="1017"
     inkscape:window-x="-8"
     inkscape:window-y="-8"
     inkscape:window-maximized="1"
     inkscape:current-layer="layer1" />
  <defs
     id="defs21372" />
  <g
     inkscape:label="Capa 1"
     inkscape:groupmode="layer"
     id="layer1">
    <g
       inkscape:label="Capa 1"
       id="layer1-9" />
    <g
       id="g21553"
       transform="matrix(0.26458333,0,0,0.26458333,22.722755,59.415431)"
       style="fill:#ffffff;fill-opacity:1">
      <path
         d="m 505,257 c 0,34.8 -0.7,69.7 0.2,104.5 1.5,61.6 -37.2,109.2 -86.5,130.4 -19.8,8.5 -40.6,13 -62.1,13 -67.3,0.1 -134.7,1 -202,-0.3 -50.7,-1 -92.4,-22.2 -122.3,-64 -15.7,-22 -23.2,-47 -23.2,-74.1 0,-71.7 0,-143.3 0,-215 C 9.1,93 37.6,52.1 88.2,25.5 110.2,14 134.1,9.1 159,9 c 65.3,0 130.7,-0.4 196,0.2 50.7,0.4 93,19.8 124.2,60.6 17.4,22.8 25.8,49 25.8,77.8 0,36.4 0,72.9 0,109.4 z m -459,0 c 0,36.7 0,73.3 0,110 0,16.4 3.8,31.8 12.3,45.7 22.3,36.5 56,54.3 97.8,55 67.1,1 134.3,0.4 201.5,0.2 16.5,0 32.5,-3.4 47.4,-10.5 40.6,-19.4 63.3,-50.3 63.1,-96.7 -0.4,-71 -0.1,-142 -0.1,-213 0,-20.1 -5.7,-38.5 -17.6,-54.7 -23,-31.1 -54.8,-46.4 -92.8,-46.8 -67,-0.8 -134,-0.3 -201,-0.2 -14.3,0 -28.1,2.9 -41.5,7.9 -36.8,13.7 -71,48.4 -69.4,99.5 C 46.9,188 46,222.5 46,257 Z"
         id="path21547"
         style="fill:#ffffff;fill-opacity:1" />
      <path
         d="M 257.6,363 C 193.1,363 141.1,311.6 141,247.6 140.9,184.6 193.3,133 257.4,133 c 64.3,-0.1 116.5,51.4 116.6,114.9 0,63.4 -52.1,115 -116.4,115.1 z m 0,-37 c 43.9,0 79.5,-35.1 79.4,-78.3 -0.1,-42.8 -35.7,-77.8 -79.4,-77.8 -43.9,0 -79.7,34.9 -79.7,78 0.1,43.2 35.8,78.2 79.7,78.1 z"
         id="path21549"
         style="fill:#ffffff;fill-opacity:1" />
      <path
         d="M 387.5,98 C 401,98 412,109.5 412,123.6 411.9,137.7 400.8,149.1 387.3,149 374,148.9 363.1,137.5 363.1,123.7 363,109.6 374,98 387.5,98 Z"
         id="path21551"
         style="fill:#ffffff;fill-opacity:1" />
    </g>
  </g>
</svg>
