<?xml version="1.0" encoding="UTF-8" standalone="no"?>
<!-- Created with Inkscape (http://www.inkscape.org/) -->

<svg
   width="210mm"
   height="297mm"
   viewBox="0 0 210 297"
   version="1.1"
   id="svg20264"
   inkscape:version="1.1 (c68e22c387, 2021-05-23)"
   sodipodi:docname="ico_twiter.svg"
   xmlns:inkscape="http://www.inkscape.org/namespaces/inkscape"
   xmlns:sodipodi="http://sodipodi.sourceforge.net/DTD/sodipodi-0.dtd"
   xmlns="http://www.w3.org/2000/svg"
   xmlns:svg="http://www.w3.org/2000/svg">
  <sodipodi:namedview
     id="namedview20266"
     pagecolor="#ffffff"
     bordercolor="#666666"
     borderopacity="1.0"
     inkscape:pageshadow="2"
     inkscape:pageopacity="0.0"
     inkscape:pagecheckerboard="0"
     inkscape:document-units="mm"
     showgrid="false"
     inkscape:zoom="0.72070006"
     inkscape:cx="396.75646"
     inkscape:cy="561.23788"
     inkscape:window-width="1920"
     inkscape:window-height="1017"
     inkscape:window-x="-8"
     inkscape:window-y="-8"
     inkscape:window-maximized="1"
     inkscape:current-layer="layer1" />
  <defs
     id="defs20261" />
  <g
     inkscape:label="Capa 1"
     inkscape:groupmode="layer"
     id="layer1">
    <path
       d="m 31.07025,167.247 c 14.710834,1.32291 27.966459,-2.38125 40.031459,-11.43 -12.620625,-1.11125 -21.060834,-7.40833 -25.770417,-19.20875 4.1275,0.50271 7.990417,0.635 12.091458,-0.47625 -13.599583,-4.23333 -20.849167,-13.12333 -21.828125,-27.46375 4.074583,1.905 7.911042,3.28083 12.435417,3.33375 C 39.96025,105.94304 35.83275,98.084916 35.9915,88.189499 c 0.07937,-4.550833 1.296458,-8.837083 3.704167,-12.885208 14.948958,17.488958 33.707917,27.172709 56.806042,28.786669 -0.132292,-1.00542 -0.211667,-1.79917 -0.3175,-2.61938 -1.905,-14.657914 7.620001,-27.992914 22.172081,-30.771039 9.12813,-1.74625 17.19792,0.661458 24.02417,6.958542 1.05833,0.9525 1.95792,1.164166 3.28083,0.820208 5.31813,-1.349375 10.37167,-3.307292 15.26646,-5.953125 -1.87854,6.19125 -5.74146,10.847917 -10.98021,14.76375 1.19063,-0.211667 2.40771,-0.370417 3.59834,-0.608542 1.24354,-0.264583 2.48708,-0.555625 3.73062,-0.899583 1.19063,-0.3175 2.35479,-0.687917 3.51896,-1.084792 1.19063,-0.396875 2.38125,-0.846666 3.78354,-1.084791 -0.68791,0.9525 -1.34937,1.957916 -2.09021,2.883958 -3.06916,3.889375 -6.61458,7.3025 -10.50395,10.345208 -0.39688,0.3175 -0.74084,1.005417 -0.71438,1.481667 0.21167,9.392709 -1.11125,18.547289 -4.15396,27.437289 -5.97958,17.51542 -16.40416,31.69708 -32.04104,41.83063 -7.72584,5.00062 -16.166043,8.28145 -25.188335,10.18645 -8.942916,1.87855 -17.93875,2.2225 -26.961041,1.16417 -9.04875,-1.05833 -17.647709,-3.73062 -25.743959,-7.91104 -2.143125,-1.08479 -4.206875,-2.30188 -6.297083,-3.46604 0.07938,-0.10584 0.132291,-0.21167 0.185208,-0.3175 z"
       id="path20348"
       style="stroke-width:0.264583;fill:#ffffff;fill-opacity:1" />
  </g>
</svg>
